<svg width="59" height="56" viewBox="0 0 59 56" fill="none" xmlns="http://www.w3.org/2000/svg">
<path id="Vector" d="M58.8249 5.22194C41.2245 -1.18054 22.0936 -1.70935 4.18106 3.71148C3.46905 3.88583 2.79868 4.2052 2.20996 4.65053C1.62125 5.09586 1.12626 5.65801 0.754565 6.30343C0.382867 6.94884 0.142075 7.66427 0.0465682 8.40702C-0.048939 9.14976 0.00279619 9.90459 0.198685 10.6264C1.17908 14.6524 2.60912 19.2781 4.32664 23.472C4.35613 23.57 4.4022 23.5229 4.4022 23.4248C4.15342 21.458 5.63137 18.9745 8.53016 18.0712C22.461 13.5345 37.4533 13.7376 51.2619 18.6502C51.7712 18.8284 52.3103 18.9005 52.8473 18.8622C53.3843 18.8239 53.9083 18.676 54.3886 18.4271C54.8688 18.1782 55.2954 17.8335 55.6434 17.4132C55.9913 16.9929 56.2535 16.5056 56.4145 15.98C58.132 10.3228 58.8249 6.4816 58.9963 5.51989C59.0258 5.34074 58.871 5.27286 58.8249 5.22383V5.22194ZM16.3604 17.6677C14.2503 18.1184 11.3331 18.8274 9.14382 19.5704C4.76708 21.1148 4.96979 26.5645 7.30099 28.3032C7.47237 27.2924 8.53016 25.9177 9.70958 25.4538C14.0789 23.6964 18.7708 22.646 23.5143 22.2123C21.1038 21.211 18.7524 19.7759 16.3917 17.6658L16.3604 17.6677ZM51.2029 28.5785C44.915 25.5553 38.0985 23.8527 31.1565 23.5712C24.2145 23.2897 17.2878 24.4352 10.7858 26.9398C8.70154 27.745 7.39681 30.3397 8.70154 32.8025C10.9808 37.0192 13.5675 41.0542 16.4396 44.873C16.0268 43.4097 16.7566 40.6999 19.5577 39.8136C27.305 37.3773 35.4338 38.4106 40.837 40.649C42.3628 41.2769 44.5226 40.896 45.7334 39.0405C47.7982 35.7858 49.6761 32.4109 51.3577 28.933C51.4333 28.7765 51.3577 28.6596 51.2029 28.5785ZM38.6495 48.1146C36.3832 46.9435 34.3106 45.4157 32.5073 43.5869C31.6725 42.7327 30.4434 41.5051 29.1478 40.0418C26.1901 40.0418 23.3189 40.3454 20.2488 41.3486C17.3979 42.2613 17.1307 45.6311 18.3783 47.3885C20.4883 50.0795 21.9681 51.5315 24.3288 54.0282C25.5799 55.2838 27.2599 55.9911 29.0123 55.9999C30.7646 56.0087 32.4514 55.3183 33.7144 54.0753C35.5572 52.1896 36.6906 50.9318 38.773 48.5162C38.8965 48.388 38.8485 48.1636 38.6477 48.1146H38.6495Z" fill="#5E0084"/>
</svg>
