<svg width="19" height="19" viewBox="0 0 19 19" fill="none" xmlns="http://www.w3.org/2000/svg">
<path d="M9.5 19C14.7467 19 19 14.7467 19 9.5C19 4.25329 14.7467 0 9.5 0C4.25329 0 0 4.25329 0 9.5C0 14.7467 4.25329 19 9.5 19Z" fill="#5E0084"/>
<path d="M10.3323 9.13141L10.3323 5.12952C10.3323 4.95381 10.2625 4.78529 10.1382 4.66104C10.014 4.53679 9.84547 4.46699 9.66975 4.46699C9.49404 4.46699 9.32552 4.53679 9.20127 4.66104C9.07702 4.78529 9.00721 4.95381 9.00721 5.12952L9.00722 9.13141L5.00533 9.13141C4.82961 9.13141 4.66109 9.20121 4.53684 9.32546C4.41259 9.44971 4.34279 9.61823 4.34279 9.79395C4.34279 9.96966 4.41259 10.1382 4.53684 10.2624C4.66109 10.3867 4.82961 10.4565 5.00533 10.4565L9.00722 10.4565L9.00722 14.4584C9.00722 14.6341 9.07702 14.8026 9.20127 14.9269C9.32552 15.0511 9.49403 15.1209 9.66975 15.1209C9.84547 15.1209 10.014 15.0511 10.1382 14.9269C10.2625 14.8026 10.3323 14.6341 10.3323 14.4584V10.4565L14.3342 10.4565C14.5099 10.4565 14.6784 10.3867 14.8027 10.2624C14.9269 10.1382 14.9967 9.96966 14.9967 9.79395C14.9967 9.61823 14.9269 9.44971 14.8027 9.32546C14.6784 9.20121 14.5099 9.13141 14.3342 9.13141H10.3323Z" fill="white"/>
</svg>
